<?xml version="1.0" encoding="UTF-8"?>
<svg width="24px" height="24px" viewBox="0 0 24 24" version="1.1" xmlns="http://www.w3.org/2000/svg" xmlns:xlink="http://www.w3.org/1999/xlink">
    <title>facebook</title>
    <g id="页面-1" stroke="none" stroke-width="1" fill="none" fill-rule="evenodd">
        <g id="首页备份" transform="translate(-658.000000, -5599.000000)" fill="#000000" fill-rule="nonzero">
            <g id="facebook" transform="translate(658.000000, 5599.000000)">
                <path d="M23.0400008,0 L0.95999916,0 C0.42899846,0 1.08519118e-15,0.429001085 1.08519118e-15,0.95999916 L1.08519118e-15,23.0400008 C1.08519118e-15,23.5710015 0.429001085,24 0.95999916,24 L23.0400008,24 C23.5710015,24 24,23.5709989 24,23.0400008 L24,0.95999916 C24,0.42899846 23.5709989,0 23.0400008,0 Z M22.0800017,22.0800017 L16.5570022,22.0800017 L16.5570022,14.7060099 L19.6769982,14.7060099 L20.1449989,11.0850065 L16.5569917,11.0850065 L16.5569917,8.7720063 C16.5569917,7.7220064 16.8479913,7.00800647 18.3509927,7.00800647 L20.2679932,7.00800647 L20.2679932,3.76799552 C19.9349936,3.72299541 18.7979934,3.62399565 17.472001,3.62399565 C14.7060125,3.62399565 12.8129939,5.31299661 12.8129939,8.4119952 L12.8129939,11.0819874 L9.68698672,11.0819874 L9.68698672,14.7029909 L12.8159864,14.7029909 L12.8159864,22.0800017 L1.91997995,22.0800017 L1.91997995,1.92000331 L22.0800017,1.92000331 L22.0800017,22.0800017 L22.0800017,22.0800017 Z" id="形状"></path>
            </g>
        </g>
    </g>
</svg>