<?xml version="1.0" encoding="UTF-8"?>
<svg width="24px" height="24px" viewBox="0 0 24 24" version="1.1" xmlns="http://www.w3.org/2000/svg" xmlns:xlink="http://www.w3.org/1999/xlink">
    <title>Instagram</title>
    <g id="页面-1" stroke="none" stroke-width="1" fill="none" fill-rule="evenodd">
        <g id="首页备份" transform="translate(-612.000000, -5599.000000)" fill="#000000" fill-rule="nonzero">
            <g id="Instagram" transform="translate(612.000000, 5599.000000)">
                <path d="M23.93,7.05272523 C23.8700001,5.77701352 23.6700003,4.90579577 23.3700005,4.13828429 C23.0600007,3.35003966 22.6500011,2.67588307 21.9900016,2.01209812 L21.9900016,2.01209814 C21.3837448,1.39898887 20.6572708,0.928509919 19.8600034,0.632670033 C19.100004,0.331892476 18.2200047,0.134831318 16.949996,0.0726014791 C15.669997,0.0103716399 15.2599973,2.61700454e-16 12,2.61700454e-16 C8.73999289,2.61700454e-16 8.33000787,0.0103716399 7.05000403,0.0726014791 C5.78000506,0.134831318 4.90000578,0.342264116 4.13999663,0.643041672 C3.34999727,0.954190869 2.67999782,1.35868482 2.00999836,2.02246978 C1.3499989,2.68625473 0.939999235,3.36041132 0.629999487,4.14865595 C0.329999731,4.9161573 0.129999894,5.78737505 0.069999943,7.06309689 C0.00999999186,8.33880859 9.46210934e-16,8.74330255 9.46210934e-16,12 C9.46210934e-16,15.2566924 0.00999999186,15.6612015 0.069999943,16.9472748 C0.129999894,18.2229865 0.329999731,19.0942042 0.629999487,19.8617157 C0.939999235,20.6499603 1.3499989,21.3241169 2.00999836,21.9879019 C2.67999782,22.6516868 3.34999727,23.0665524 4.13999663,23.36733 C4.89999601,23.6681075 5.7799953,23.8651687 7.05000403,23.9273985 C8.33000299,23.9896284 8.74000265,24 12,24 C15.2600071,24 15.6699921,23.9896284 16.949996,23.9273985 C18.2299949,23.8651687 19.0999942,23.6681075 19.8600034,23.36733 C20.6500027,23.0561808 21.3200022,22.6516868 21.9900016,21.9879019 C22.6600011,21.3241169 23.0700008,20.6499603 23.3700005,19.8617157 C23.6700003,19.0942143 23.8700001,18.2229966 23.9300001,16.9472748 C23.99,15.671563 24,15.2566975 24,12 C24,8.7433228 23.99,8.33881366 23.9300001,7.05274044 L23.93,7.05272523 Z M21.7700018,16.8435431 C21.7200018,18.0155385 21.520002,18.6482085 21.3600021,19.0734457 C21.1400023,19.6335143 20.8800025,20.0276366 20.4600029,20.4528738 C20.0400032,20.8677394 19.6400035,21.1374021 19.080004,21.3552065 C18.6600043,21.5211527 18.0200048,21.7182139 16.8500058,21.7700721 C15.5800068,21.8323019 15.2100071,21.8426736 12.0000097,21.8426736 C8.80001235,21.8426736 8.42000778,21.8323019 7.1500137,21.7700721 C5.98001465,21.7182139 5.34001517,21.5211527 4.92001551,21.3552065 C4.36001597,21.1374021 3.96001629,20.8781111 3.54001663,20.4528738 C3.12001697,20.0380082 2.86001719,19.6335143 2.64001737,19.0734457 C2.4800175,18.6482085 2.28001766,18.0155385 2.2300177,16.8435431 C2.17001775,15.5782031 2.16001776,15.204824 2.16001776,11.9999924 C2.16001776,8.79516579 2.17001775,8.42177663 2.2300177,7.15644163 C2.29001765,5.98444632 2.4800175,5.35177629 2.65001736,4.92653905 C2.87001718,4.3664705 3.13001697,3.97234818 3.55001662,3.54711095 C3.97001628,3.13224535 4.37001596,2.87295436 4.9300155,2.65514992 C5.35001516,2.48920368 5.99001464,2.29214252 7.16001776,2.24028432 C8.42001266,2.17805449 8.80001235,2.16768285 12,2.16768285 C15.1999974,2.16768285 15.580002,2.17805449 16.849996,2.24028432 C18.0199951,2.29214252 18.6499946,2.48920368 19.0799942,2.65514992 C19.6399938,2.87295436 20.0399934,3.13224535 20.4599931,3.54711095 C20.8799928,3.96197654 21.1399925,4.3664705 21.3599924,4.92653905 C21.5199922,5.35177629 21.7199921,5.98444632 21.769992,7.15644163 C21.829992,8.42178169 21.839992,8.79516073 21.839992,11.9999924 C21.839992,15.204819 21.829992,15.5782081 21.769992,16.8435431 L21.7700018,16.8435431 Z M12.0000146,5.83922311 C8.6000174,5.83922311 5.84000988,8.59808944 5.84000988,11.9999671 C5.84000988,15.40187 8.6000174,18.160711 12.0000146,18.160711 C15.4000119,18.160711 18.1600194,15.4018447 18.1600194,11.9999671 C18.1600194,8.59806412 15.4000119,5.83922311 12.0000146,5.83922311 Z M12.0000179,15.9930484 C9.79001643,15.9930484 8.00001789,14.1987547 8.00001789,11.9999671 C8.00001789,9.79080777 9.79001643,8.00688571 12.0000179,8.00688571 C14.2100128,8.00688571 16.0000179,9.80117941 16.0000179,11.9999671 C16.0000179,14.2091264 14.2100128,15.9930484 12.0000179,15.9930484 Z M18.4100192,4.15899719 C17.6100198,4.15899719 16.9700204,4.80203886 16.9700204,5.60065513 C16.9700204,6.3992714 17.6100198,7.04231307 18.4100192,7.04231307 C19.2100185,7.04231307 19.850018,6.3992714 19.850018,5.60065513 C19.850018,4.80203886 19.2000185,4.15899719 18.4100192,4.15899719 Z" id="形状"></path>
            </g>
        </g>
    </g>
</svg>