<?xml version="1.0" encoding="UTF-8"?>
<svg width="21px" height="24px" viewBox="0 0 21 24" version="1.1" xmlns="http://www.w3.org/2000/svg" xmlns:xlink="http://www.w3.org/1999/xlink">
    <title>tiktok</title>
    <g id="页面-1" stroke="none" stroke-width="1" fill="none" fill-rule="evenodd">
        <g id="首页备份" transform="translate(-704.000000, -5599.000000)" fill="#000000" fill-rule="nonzero">
            <g id="tiktok" transform="translate(704.000000, 5599.000000)">
                <path d="M10.9507553,0.0199997326 C12.2607365,0 13.5607286,0.00999985456 14.8607113,0 C14.9407102,1.52997932 15.4907035,3.08994922 16.6106864,4.16994786 C17.7306717,5.2799324 19.3106596,5.78992472 20.8506186,5.95992372 L20.8506186,9.98987957 C19.4106391,9.93988018 17.9606613,9.63988548 16.6506708,9.01989408 C16.0806785,8.75989753 15.550687,8.42990264 15.0306939,8.08990697 C15.020694,11.0098642 15.0406937,13.9298215 15.0106942,16.8397944 C14.9306953,18.2397754 14.4707019,19.6297674 13.6607123,20.7797503 C12.3507311,22.6997245 10.0807559,23.9497151 7.75079005,23.9896994 C6.32080904,24.0696983 4.89083272,23.6797037 3.67084207,22.959714 C1.65086963,21.7697303 0.230901106,19.5897573 0.020901371,17.2497837 C0.00090163845,16.7497898 -0.00909812236,16.2497982 0.0109015164,15.7598051 C0.190898945,13.8598302 1.13088682,12.0398567 2.59087482,10.7998739 C4.25085241,9.35989443 6.57081511,8.66990233 8.74079674,9.07989869 C8.76079648,10.5598789 8.70079742,12.0398637 8.70079742,13.5198462 C7.71081039,13.1998497 6.5508267,13.2898494 5.68083248,13.8898418 C5.05084031,14.2998358 4.57084795,14.929828 4.32085217,15.639817 C4.11085501,16.1498093 4.17085423,16.7098031 4.18085406,17.2497954 C4.42085142,18.8897738 6.00082989,20.2697603 7.68079496,20.1197605 C8.80078026,20.1097607 9.87076407,19.4597707 10.4507524,18.5097821 C10.6407499,18.1797872 10.850748,17.8397915 10.8607464,17.4497967 C10.960745,15.6598209 10.9207456,13.8798481 10.9307455,12.0898816 C10.9407453,8.05992576 10.9207456,4.04000115 10.9507452,0.0200530997 L10.9507553,0.0199997326 Z" id="路径"></path>
            </g>
        </g>
    </g>
</svg>